<mxfile host="app.diagrams.net" agent="Mozilla/5.0 (Windows NT 10.0; Win64; x64) AppleWebKit/537.36 (KHTML, like Gecko) Chrome/137.0.0.0 Safari/537.36" version="27.1.6">
  <diagram name="Page-1" id="h0pnJ3yxgjf2yaO0TOta">
    <mxGraphModel dx="2424" dy="1456" grid="0" gridSize="10" guides="1" tooltips="1" connect="1" arrows="1" fold="1" page="0" pageScale="1" pageWidth="850" pageHeight="1100" math="0" shadow="0">
      <root>
        <mxCell id="0" />
        <mxCell id="1" parent="0" />
        <mxCell id="z0HtWDV_gNVLQkzhpLmx-2" value="Patients&amp;nbsp;" style="text;html=1;align=center;verticalAlign=middle;whiteSpace=wrap;rounded=0;" vertex="1" parent="1">
          <mxGeometry x="362" y="200" width="60" height="30" as="geometry" />
        </mxCell>
        <mxCell id="z0HtWDV_gNVLQkzhpLmx-265" style="edgeStyle=orthogonalEdgeStyle;rounded=0;orthogonalLoop=1;jettySize=auto;html=1;exitX=0.5;exitY=1;exitDx=0;exitDy=0;entryX=0.5;entryY=0;entryDx=0;entryDy=0;fontSize=12;startSize=8;endSize=8;" edge="1" parent="1" source="z0HtWDV_gNVLQkzhpLmx-3" target="z0HtWDV_gNVLQkzhpLmx-246">
          <mxGeometry relative="1" as="geometry" />
        </mxCell>
        <mxCell id="z0HtWDV_gNVLQkzhpLmx-266" style="edgeStyle=orthogonalEdgeStyle;rounded=0;orthogonalLoop=1;jettySize=auto;html=1;exitX=0.5;exitY=1;exitDx=0;exitDy=0;entryX=0.5;entryY=0;entryDx=0;entryDy=0;fontSize=12;startSize=8;endSize=8;" edge="1" parent="1" source="z0HtWDV_gNVLQkzhpLmx-3" target="z0HtWDV_gNVLQkzhpLmx-247">
          <mxGeometry relative="1" as="geometry">
            <Array as="points">
              <mxPoint x="419" y="318" />
              <mxPoint x="1000" y="318" />
              <mxPoint x="1000" y="471" />
              <mxPoint x="911" y="471" />
            </Array>
          </mxGeometry>
        </mxCell>
        <mxCell id="z0HtWDV_gNVLQkzhpLmx-267" style="edgeStyle=orthogonalEdgeStyle;rounded=0;orthogonalLoop=1;jettySize=auto;html=1;exitX=0.5;exitY=1;exitDx=0;exitDy=0;entryX=0.5;entryY=0;entryDx=0;entryDy=0;fontSize=12;startSize=8;endSize=8;" edge="1" parent="1" source="z0HtWDV_gNVLQkzhpLmx-3" target="z0HtWDV_gNVLQkzhpLmx-248">
          <mxGeometry relative="1" as="geometry">
            <Array as="points">
              <mxPoint x="342" y="301" />
              <mxPoint x="342" y="594" />
              <mxPoint x="911" y="594" />
            </Array>
          </mxGeometry>
        </mxCell>
        <mxCell id="z0HtWDV_gNVLQkzhpLmx-268" style="edgeStyle=orthogonalEdgeStyle;rounded=0;orthogonalLoop=1;jettySize=auto;html=1;exitX=0.5;exitY=1;exitDx=0;exitDy=0;entryX=0.5;entryY=0;entryDx=0;entryDy=0;fontSize=12;startSize=8;endSize=8;" edge="1" parent="1" source="z0HtWDV_gNVLQkzhpLmx-3" target="z0HtWDV_gNVLQkzhpLmx-249">
          <mxGeometry relative="1" as="geometry">
            <Array as="points">
              <mxPoint x="294" y="301" />
              <mxPoint x="294" y="745" />
              <mxPoint x="1035" y="745" />
            </Array>
          </mxGeometry>
        </mxCell>
        <mxCell id="z0HtWDV_gNVLQkzhpLmx-3" value="PatitentsID" style="rounded=0;whiteSpace=wrap;html=1;" vertex="1" parent="1">
          <mxGeometry x="359" y="241" width="120" height="60" as="geometry" />
        </mxCell>
        <mxCell id="z0HtWDV_gNVLQkzhpLmx-7" value="contact info" style="rounded=0;whiteSpace=wrap;html=1;" vertex="1" parent="1">
          <mxGeometry x="848" y="241" width="120" height="60" as="geometry" />
        </mxCell>
        <mxCell id="z0HtWDV_gNVLQkzhpLmx-8" value="name" style="rounded=0;whiteSpace=wrap;html=1;" vertex="1" parent="1">
          <mxGeometry x="479" y="241" width="120" height="60" as="geometry" />
        </mxCell>
        <mxCell id="z0HtWDV_gNVLQkzhpLmx-9" value="DOB" style="rounded=0;whiteSpace=wrap;html=1;" vertex="1" parent="1">
          <mxGeometry x="603" y="241" width="120" height="60" as="geometry" />
        </mxCell>
        <mxCell id="z0HtWDV_gNVLQkzhpLmx-10" value="gender" style="rounded=0;whiteSpace=wrap;html=1;" vertex="1" parent="1">
          <mxGeometry x="723" y="241" width="120" height="60" as="geometry" />
        </mxCell>
        <mxCell id="z0HtWDV_gNVLQkzhpLmx-185" value="Appointments" style="text;html=1;align=center;verticalAlign=middle;whiteSpace=wrap;rounded=0;" vertex="1" parent="1">
          <mxGeometry x="362" y="327" width="60" height="30" as="geometry" />
        </mxCell>
        <mxCell id="z0HtWDV_gNVLQkzhpLmx-269" style="edgeStyle=orthogonalEdgeStyle;rounded=0;orthogonalLoop=1;jettySize=auto;html=1;exitX=0.5;exitY=1;exitDx=0;exitDy=0;entryX=0.5;entryY=0;entryDx=0;entryDy=0;fontSize=12;startSize=8;endSize=8;" edge="1" parent="1" source="z0HtWDV_gNVLQkzhpLmx-186" target="z0HtWDV_gNVLQkzhpLmx-256">
          <mxGeometry relative="1" as="geometry">
            <Array as="points">
              <mxPoint x="419" y="458" />
              <mxPoint x="1166" y="458" />
            </Array>
          </mxGeometry>
        </mxCell>
        <mxCell id="z0HtWDV_gNVLQkzhpLmx-186" value="AppointementsID" style="rounded=0;whiteSpace=wrap;html=1;" vertex="1" parent="1">
          <mxGeometry x="359" y="368" width="120" height="60" as="geometry" />
        </mxCell>
        <mxCell id="z0HtWDV_gNVLQkzhpLmx-188" value="Time" style="rounded=0;whiteSpace=wrap;html=1;" vertex="1" parent="1">
          <mxGeometry x="479" y="368" width="120" height="60" as="geometry" />
        </mxCell>
        <mxCell id="z0HtWDV_gNVLQkzhpLmx-189" value="day" style="rounded=0;whiteSpace=wrap;html=1;" vertex="1" parent="1">
          <mxGeometry x="603" y="368" width="120" height="60" as="geometry" />
        </mxCell>
        <mxCell id="z0HtWDV_gNVLQkzhpLmx-198" value="Billing" style="text;html=1;align=center;verticalAlign=middle;whiteSpace=wrap;rounded=0;" vertex="1" parent="1">
          <mxGeometry x="365" y="464" width="60" height="30" as="geometry" />
        </mxCell>
        <mxCell id="z0HtWDV_gNVLQkzhpLmx-199" value="BillingID" style="rounded=0;whiteSpace=wrap;html=1;" vertex="1" parent="1">
          <mxGeometry x="362" y="505" width="120" height="60" as="geometry" />
        </mxCell>
        <mxCell id="z0HtWDV_gNVLQkzhpLmx-201" value="services" style="rounded=0;whiteSpace=wrap;html=1;" vertex="1" parent="1">
          <mxGeometry x="482" y="505" width="120" height="60" as="geometry" />
        </mxCell>
        <mxCell id="z0HtWDV_gNVLQkzhpLmx-202" value="data" style="rounded=0;whiteSpace=wrap;html=1;" vertex="1" parent="1">
          <mxGeometry x="606" y="505" width="120" height="60" as="geometry" />
        </mxCell>
        <mxCell id="z0HtWDV_gNVLQkzhpLmx-203" value="Total cost" style="rounded=0;whiteSpace=wrap;html=1;" vertex="1" parent="1">
          <mxGeometry x="726" y="505" width="120" height="60" as="geometry" />
        </mxCell>
        <mxCell id="z0HtWDV_gNVLQkzhpLmx-204" value="Admissions" style="text;html=1;align=center;verticalAlign=middle;whiteSpace=wrap;rounded=0;" vertex="1" parent="1">
          <mxGeometry x="365" y="600" width="60" height="30" as="geometry" />
        </mxCell>
        <mxCell id="z0HtWDV_gNVLQkzhpLmx-205" value="AdmisssionsID" style="rounded=0;whiteSpace=wrap;html=1;" vertex="1" parent="1">
          <mxGeometry x="362" y="641" width="120" height="60" as="geometry" />
        </mxCell>
        <mxCell id="z0HtWDV_gNVLQkzhpLmx-207" value="data in&amp;nbsp;" style="rounded=0;whiteSpace=wrap;html=1;" vertex="1" parent="1">
          <mxGeometry x="482" y="641" width="120" height="60" as="geometry" />
        </mxCell>
        <mxCell id="z0HtWDV_gNVLQkzhpLmx-208" value="data out" style="rounded=0;whiteSpace=wrap;html=1;" vertex="1" parent="1">
          <mxGeometry x="606" y="641" width="120" height="60" as="geometry" />
        </mxCell>
        <mxCell id="z0HtWDV_gNVLQkzhpLmx-209" value="Admissions room number" style="rounded=0;whiteSpace=wrap;html=1;" vertex="1" parent="1">
          <mxGeometry x="726" y="641" width="120" height="60" as="geometry" />
        </mxCell>
        <mxCell id="z0HtWDV_gNVLQkzhpLmx-210" value="MedicalRecoreds" style="text;html=1;align=center;verticalAlign=middle;whiteSpace=wrap;rounded=0;" vertex="1" parent="1">
          <mxGeometry x="365" y="756" width="60" height="30" as="geometry" />
        </mxCell>
        <mxCell id="z0HtWDV_gNVLQkzhpLmx-211" value="MedicalRecoredsID" style="rounded=0;whiteSpace=wrap;html=1;" vertex="1" parent="1">
          <mxGeometry x="362" y="797" width="120" height="60" as="geometry" />
        </mxCell>
        <mxCell id="z0HtWDV_gNVLQkzhpLmx-212" value="notes" style="rounded=0;whiteSpace=wrap;html=1;" vertex="1" parent="1">
          <mxGeometry x="851" y="797" width="120" height="60" as="geometry" />
        </mxCell>
        <mxCell id="z0HtWDV_gNVLQkzhpLmx-213" value="treatment" style="rounded=0;whiteSpace=wrap;html=1;" vertex="1" parent="1">
          <mxGeometry x="482" y="797" width="120" height="60" as="geometry" />
        </mxCell>
        <mxCell id="z0HtWDV_gNVLQkzhpLmx-214" value="plans" style="rounded=0;whiteSpace=wrap;html=1;" vertex="1" parent="1">
          <mxGeometry x="606" y="797" width="120" height="60" as="geometry" />
        </mxCell>
        <mxCell id="z0HtWDV_gNVLQkzhpLmx-215" value="data" style="rounded=0;whiteSpace=wrap;html=1;" vertex="1" parent="1">
          <mxGeometry x="726" y="797" width="120" height="60" as="geometry" />
        </mxCell>
        <mxCell id="z0HtWDV_gNVLQkzhpLmx-216" value="Departments" style="text;html=1;align=center;verticalAlign=middle;whiteSpace=wrap;rounded=0;" vertex="1" parent="1">
          <mxGeometry x="365" y="889" width="60" height="30" as="geometry" />
        </mxCell>
        <mxCell id="z0HtWDV_gNVLQkzhpLmx-272" style="edgeStyle=orthogonalEdgeStyle;rounded=0;orthogonalLoop=1;jettySize=auto;html=1;exitX=0.5;exitY=1;exitDx=0;exitDy=0;entryX=0.5;entryY=0;entryDx=0;entryDy=0;fontSize=12;startSize=8;endSize=8;" edge="1" parent="1" source="z0HtWDV_gNVLQkzhpLmx-217" target="z0HtWDV_gNVLQkzhpLmx-260">
          <mxGeometry relative="1" as="geometry" />
        </mxCell>
        <mxCell id="z0HtWDV_gNVLQkzhpLmx-217" value="DepartmentsID" style="rounded=0;whiteSpace=wrap;html=1;" vertex="1" parent="1">
          <mxGeometry x="362" y="930" width="120" height="60" as="geometry" />
        </mxCell>
        <mxCell id="z0HtWDV_gNVLQkzhpLmx-218" value="cardiology" style="rounded=0;whiteSpace=wrap;html=1;" vertex="1" parent="1">
          <mxGeometry x="851" y="930" width="120" height="60" as="geometry" />
        </mxCell>
        <mxCell id="z0HtWDV_gNVLQkzhpLmx-219" value="Urology" style="rounded=0;whiteSpace=wrap;html=1;" vertex="1" parent="1">
          <mxGeometry x="482" y="930" width="120" height="60" as="geometry" />
        </mxCell>
        <mxCell id="z0HtWDV_gNVLQkzhpLmx-220" value="Radiology" style="rounded=0;whiteSpace=wrap;html=1;" vertex="1" parent="1">
          <mxGeometry x="606" y="930" width="120" height="60" as="geometry" />
        </mxCell>
        <mxCell id="z0HtWDV_gNVLQkzhpLmx-221" value="Othopedics" style="rounded=0;whiteSpace=wrap;html=1;" vertex="1" parent="1">
          <mxGeometry x="726" y="930" width="120" height="60" as="geometry" />
        </mxCell>
        <mxCell id="z0HtWDV_gNVLQkzhpLmx-222" value="dermatology" style="rounded=0;whiteSpace=wrap;html=1;" vertex="1" parent="1">
          <mxGeometry x="975" y="930" width="120" height="60" as="geometry" />
        </mxCell>
        <mxCell id="z0HtWDV_gNVLQkzhpLmx-223" value="Staff" style="text;html=1;align=center;verticalAlign=middle;whiteSpace=wrap;rounded=0;" vertex="1" parent="1">
          <mxGeometry x="365" y="1007" width="60" height="30" as="geometry" />
        </mxCell>
        <mxCell id="z0HtWDV_gNVLQkzhpLmx-273" style="edgeStyle=orthogonalEdgeStyle;rounded=0;orthogonalLoop=1;jettySize=auto;html=1;exitX=0.5;exitY=1;exitDx=0;exitDy=0;entryX=0.5;entryY=0;entryDx=0;entryDy=0;fontSize=12;startSize=8;endSize=8;" edge="1" parent="1" source="z0HtWDV_gNVLQkzhpLmx-224" target="z0HtWDV_gNVLQkzhpLmx-263">
          <mxGeometry relative="1" as="geometry">
            <Array as="points">
              <mxPoint x="422" y="1130" />
              <mxPoint x="791" y="1130" />
            </Array>
          </mxGeometry>
        </mxCell>
        <mxCell id="z0HtWDV_gNVLQkzhpLmx-274" style="edgeStyle=orthogonalEdgeStyle;rounded=0;orthogonalLoop=1;jettySize=auto;html=1;exitX=0.5;exitY=1;exitDx=0;exitDy=0;entryX=0.5;entryY=0;entryDx=0;entryDy=0;fontSize=12;startSize=8;endSize=8;" edge="1" parent="1" source="z0HtWDV_gNVLQkzhpLmx-224" target="z0HtWDV_gNVLQkzhpLmx-262">
          <mxGeometry relative="1" as="geometry">
            <Array as="points">
              <mxPoint x="422" y="1119" />
              <mxPoint x="926" y="1119" />
              <mxPoint x="926" y="1273" />
              <mxPoint x="922" y="1273" />
            </Array>
          </mxGeometry>
        </mxCell>
        <mxCell id="z0HtWDV_gNVLQkzhpLmx-224" value="StaffID" style="rounded=0;whiteSpace=wrap;html=1;" vertex="1" parent="1">
          <mxGeometry x="362" y="1048" width="120" height="60" as="geometry" />
        </mxCell>
        <mxCell id="z0HtWDV_gNVLQkzhpLmx-225" value="assigned dept" style="rounded=0;whiteSpace=wrap;html=1;" vertex="1" parent="1">
          <mxGeometry x="851" y="1048" width="120" height="60" as="geometry" />
        </mxCell>
        <mxCell id="z0HtWDV_gNVLQkzhpLmx-226" value="Nurses" style="rounded=0;whiteSpace=wrap;html=1;" vertex="1" parent="1">
          <mxGeometry x="482" y="1048" width="120" height="60" as="geometry" />
        </mxCell>
        <mxCell id="z0HtWDV_gNVLQkzhpLmx-227" value="admin" style="rounded=0;whiteSpace=wrap;html=1;" vertex="1" parent="1">
          <mxGeometry x="606" y="1048" width="120" height="60" as="geometry" />
        </mxCell>
        <mxCell id="z0HtWDV_gNVLQkzhpLmx-228" value="shifft" style="rounded=0;whiteSpace=wrap;html=1;" vertex="1" parent="1">
          <mxGeometry x="726" y="1048" width="120" height="60" as="geometry" />
        </mxCell>
        <mxCell id="z0HtWDV_gNVLQkzhpLmx-230" value="Doctors" style="text;html=1;align=center;verticalAlign=middle;whiteSpace=wrap;rounded=0;" vertex="1" parent="1">
          <mxGeometry x="365" y="1147" width="60" height="30" as="geometry" />
        </mxCell>
        <mxCell id="z0HtWDV_gNVLQkzhpLmx-271" style="edgeStyle=orthogonalEdgeStyle;rounded=0;orthogonalLoop=1;jettySize=auto;html=1;exitX=0.5;exitY=0;exitDx=0;exitDy=0;entryX=0.5;entryY=1;entryDx=0;entryDy=0;fontSize=12;startSize=8;endSize=8;" edge="1" parent="1" source="z0HtWDV_gNVLQkzhpLmx-231" target="z0HtWDV_gNVLQkzhpLmx-258">
          <mxGeometry relative="1" as="geometry">
            <Array as="points">
              <mxPoint x="422" y="1153" />
              <mxPoint x="1166" y="1153" />
            </Array>
          </mxGeometry>
        </mxCell>
        <mxCell id="z0HtWDV_gNVLQkzhpLmx-231" value="DoctorsID" style="rounded=0;whiteSpace=wrap;html=1;" vertex="1" parent="1">
          <mxGeometry x="362" y="1188" width="120" height="60" as="geometry" />
        </mxCell>
        <mxCell id="z0HtWDV_gNVLQkzhpLmx-233" value="contact info" style="rounded=0;whiteSpace=wrap;html=1;" vertex="1" parent="1">
          <mxGeometry x="482" y="1188" width="120" height="60" as="geometry" />
        </mxCell>
        <mxCell id="z0HtWDV_gNVLQkzhpLmx-234" value="specialization" style="rounded=0;whiteSpace=wrap;html=1;" vertex="1" parent="1">
          <mxGeometry x="606" y="1188" width="120" height="60" as="geometry" />
        </mxCell>
        <mxCell id="z0HtWDV_gNVLQkzhpLmx-237" value="Rooms" style="text;html=1;align=center;verticalAlign=middle;whiteSpace=wrap;rounded=0;" vertex="1" parent="1">
          <mxGeometry x="368" y="1273" width="60" height="30" as="geometry" />
        </mxCell>
        <mxCell id="z0HtWDV_gNVLQkzhpLmx-270" style="edgeStyle=orthogonalEdgeStyle;rounded=0;orthogonalLoop=1;jettySize=auto;html=1;exitX=0.5;exitY=0;exitDx=0;exitDy=0;entryX=0.5;entryY=1;entryDx=0;entryDy=0;fontSize=12;startSize=8;endSize=8;" edge="1" parent="1" source="z0HtWDV_gNVLQkzhpLmx-238" target="z0HtWDV_gNVLQkzhpLmx-264">
          <mxGeometry relative="1" as="geometry">
            <Array as="points">
              <mxPoint x="425" y="1288" />
              <mxPoint x="1258" y="1288" />
              <mxPoint x="1258" y="725" />
              <mxPoint x="1042" y="725" />
            </Array>
          </mxGeometry>
        </mxCell>
        <mxCell id="z0HtWDV_gNVLQkzhpLmx-238" value="RoomID" style="rounded=0;whiteSpace=wrap;html=1;" vertex="1" parent="1">
          <mxGeometry x="365" y="1314" width="120" height="60" as="geometry" />
        </mxCell>
        <mxCell id="z0HtWDV_gNVLQkzhpLmx-239" value="availability" style="rounded=0;whiteSpace=wrap;html=1;" vertex="1" parent="1">
          <mxGeometry x="485" y="1314" width="120" height="60" as="geometry" />
        </mxCell>
        <mxCell id="z0HtWDV_gNVLQkzhpLmx-240" value="type" style="rounded=0;whiteSpace=wrap;html=1;" vertex="1" parent="1">
          <mxGeometry x="609" y="1314" width="120" height="60" as="geometry" />
        </mxCell>
        <mxCell id="z0HtWDV_gNVLQkzhpLmx-241" value="users" style="text;html=1;align=center;verticalAlign=middle;whiteSpace=wrap;rounded=0;" vertex="1" parent="1">
          <mxGeometry x="371" y="1396" width="60" height="30" as="geometry" />
        </mxCell>
        <mxCell id="z0HtWDV_gNVLQkzhpLmx-242" value="userID" style="rounded=0;whiteSpace=wrap;html=1;" vertex="1" parent="1">
          <mxGeometry x="368" y="1437" width="120" height="60" as="geometry" />
        </mxCell>
        <mxCell id="z0HtWDV_gNVLQkzhpLmx-243" value="role" style="rounded=0;whiteSpace=wrap;html=1;" vertex="1" parent="1">
          <mxGeometry x="488" y="1437" width="120" height="60" as="geometry" />
        </mxCell>
        <mxCell id="z0HtWDV_gNVLQkzhpLmx-244" value="password" style="rounded=0;whiteSpace=wrap;html=1;" vertex="1" parent="1">
          <mxGeometry x="612" y="1437" width="120" height="60" as="geometry" />
        </mxCell>
        <mxCell id="z0HtWDV_gNVLQkzhpLmx-245" value="username" style="rounded=0;whiteSpace=wrap;html=1;" vertex="1" parent="1">
          <mxGeometry x="737" y="1437" width="120" height="60" as="geometry" />
        </mxCell>
        <mxCell id="z0HtWDV_gNVLQkzhpLmx-246" value="PatitentsID" style="rounded=0;whiteSpace=wrap;html=1;" vertex="1" parent="1">
          <mxGeometry x="728" y="368" width="120" height="60" as="geometry" />
        </mxCell>
        <mxCell id="z0HtWDV_gNVLQkzhpLmx-247" value="PatitentsID" style="rounded=0;whiteSpace=wrap;html=1;" vertex="1" parent="1">
          <mxGeometry x="851" y="505" width="120" height="60" as="geometry" />
        </mxCell>
        <mxCell id="z0HtWDV_gNVLQkzhpLmx-248" value="PatitentsID" style="rounded=0;whiteSpace=wrap;html=1;" vertex="1" parent="1">
          <mxGeometry x="851" y="641" width="120" height="60" as="geometry" />
        </mxCell>
        <mxCell id="z0HtWDV_gNVLQkzhpLmx-249" value="PatitentsID" style="rounded=0;whiteSpace=wrap;html=1;" vertex="1" parent="1">
          <mxGeometry x="975" y="797" width="120" height="60" as="geometry" />
        </mxCell>
        <mxCell id="z0HtWDV_gNVLQkzhpLmx-255" value="DoctorsID" style="rounded=0;whiteSpace=wrap;html=1;" vertex="1" parent="1">
          <mxGeometry x="857" y="365" width="120" height="60" as="geometry" />
        </mxCell>
        <mxCell id="z0HtWDV_gNVLQkzhpLmx-256" value="AppointementsID" style="rounded=0;whiteSpace=wrap;html=1;" vertex="1" parent="1">
          <mxGeometry x="1106" y="799" width="120" height="60" as="geometry" />
        </mxCell>
        <mxCell id="z0HtWDV_gNVLQkzhpLmx-258" value="DoctorsID" style="rounded=0;whiteSpace=wrap;html=1;" vertex="1" parent="1">
          <mxGeometry x="1106" y="930" width="120" height="60" as="geometry" />
        </mxCell>
        <mxCell id="z0HtWDV_gNVLQkzhpLmx-260" value="DepartmentsID" style="rounded=0;whiteSpace=wrap;html=1;" vertex="1" parent="1">
          <mxGeometry x="979" y="1048" width="120" height="60" as="geometry" />
        </mxCell>
        <mxCell id="z0HtWDV_gNVLQkzhpLmx-262" value="StaffID" style="rounded=0;whiteSpace=wrap;html=1;" vertex="1" parent="1">
          <mxGeometry x="862" y="1437" width="120" height="60" as="geometry" />
        </mxCell>
        <mxCell id="z0HtWDV_gNVLQkzhpLmx-263" value="StaffID" style="rounded=0;whiteSpace=wrap;html=1;" vertex="1" parent="1">
          <mxGeometry x="731" y="1188" width="120" height="60" as="geometry" />
        </mxCell>
        <mxCell id="z0HtWDV_gNVLQkzhpLmx-264" value="RoomID" style="rounded=0;whiteSpace=wrap;html=1;" vertex="1" parent="1">
          <mxGeometry x="982" y="641" width="120" height="60" as="geometry" />
        </mxCell>
      </root>
    </mxGraphModel>
  </diagram>
</mxfile>
